Oswald-Bold.ufo
<glyph name="parenright" format="1">
  <advance width="696"/>
  <unicode hex="0029"/>
  <outline>
    <contour>
      <point x="110" y="-64" type="curve"/>
      <point x="110" y="158" type="line"/>
      <point x="349" y="154"/>
      <point x="304" y="785"/>
      <point x="304" y="921" type="curve" smooth="yes"/>
      <point x="304" y="1058"/>
      <point x="349" y="1689"/>
      <point x="110" y="1685" type="curve"/>
      <point x="110" y="1907" type="line"/>
      <point x="605" y="1909"/>
      <point x="592" y="1274"/>
      <point x="592" y="921" type="curve" smooth="yes"/>
      <point x="592" y="569"/>
      <point x="605" y="-67"/>
    </contour>
  </outline>
</glyph>
<glyph name="plus" format="1">
  <advance width="762"/>
  <unicode hex="002B"/>
  <outline>
    <contour>
      <point x="70" y="583" type="line"/>
      <point x="70" y="806" type="line"/>
      <point x="265" y="806" type="line"/>
      <point x="265" y="1000" type="line"/>
      <point x="487" y="1000" type="line"/>
      <point x="487" y="806" type="line"/>
      <point x="682" y="806" type="line"/>
      <point x="682" y="583" type="line"/>
      <point x="487" y="583" type="line"/>
      <point x="487" y="389" type="line"/>
      <point x="265" y="389" type="line"/>
      <point x="265" y="583" type="line"/>
    </contour>
  </outline>
</glyph>
<glyph name="comma" format="1">
  <advance width="469"/>
  <unicode hex="002C"/>
  <outline>
    <contour>
      <point x="153" y="-244" type="curve"/>
      <point x="113" y="-78" type="line"/>
      <point x="185" y="-78"/>
      <point x="193" y="-85"/>
      <point x="194" y="-1" type="curve"/>
      <point x="84" y="-1" type="line"/>
      <point x="84" y="317" type="line"/>
      <point x="407" y="317" type="line"/>
      <point x="407" y="-25"/>
      <point x="436" y="-286"/>
    </contour>
  </outline>
</glyph>
<glyph name="hyphen" format="1">
  <advance width="429"/>
  <unicode hex="002D"/>
  <outline>
    <contour>
      <point x="4" y="453" type="line"/>
      <point x="4" y="676" type="line"/>
      <point x="421" y="676" type="line"/>
      <point x="421" y="453" type="line"/>
    </contour>
  </outline>
</glyph>
<glyph name="period" format="1">
  <advance width="522"/>
  <unicode hex="002E"/>
  <outline>
    <contour>
      <point x="99" y="0" type="line"/>
      <point x="99" y="317" type="line"/>
      <point x="424" y="317" type="line"/>
      <point x="424" y="0" type="line"/>
    </contour>
  </outline>
</glyph>
<glyph name="two" format="1">
  <advance width="1067"/>
  <unicode hex="0032"/>
  <outline>
    <contour>
      <point x="60" y="0" type="line"/>
      <point x="1018" y="0" type="line"/>
      <point x="1018" y="346" type="line"/>
      <point x="458" y="346" type="line"/>
      <point x="554.5" y="475.0"/>
      <point x="694.5" y="618.75"/>
      <point x="810.375" y="782.5" type="curve" smooth="yes"/>
      <point x="926.25" y="946.25"/>
      <point x="1018.0" y="1130.0"/>
      <point x="1018" y="1339" type="curve" smooth="yes"/>
      <point x="1018" y="1640"/>
      <point x="848" y="1835"/>
      <point x="540" y="1835" type="curve" smooth="yes"/>
      <point x="190" y="1835"/>
      <point x="61" y="1596"/>
      <point x="61" y="1276" type="curve" smooth="yes"/>
      <point x="61" y="1163" type="line"/>
      <point x="406" y="1163" type="line"/>
      <point x="406" y="1262"/>
      <point x="392" y="1531"/>
      <point x="540" y="1531" type="curve" smooth="yes"/>
      <point x="635" y="1531"/>
      <point x="672" y="1417"/>
      <point x="672" y="1339" type="curve" smooth="yes"/>
      <point x="672" y="1192"/>
      <point x="580" y="1053"/>
      <point x="498" y="936" type="curve" smooth="yes"/>
      <point x="60" y="309" type="line"/>
    </contour>
  </outline>
</glyph>
<glyph name="eight" format="1">
  <advance width="1088"/>
  <unicode hex="0038"/>
  <outline>
    <contour>
      <point x="544" y="251" type="curve" smooth="yes"/>
      <point x="688" y="251"/>
      <point x="688" y="412"/>
      <point x="688" y="508" type="curve" smooth="yes"/>
      <point x="688" y="618"/>
      <point x="675" y="804"/>
      <point x="544" y="804" type="curve" smooth="yes"/>
      <point x="414" y="804"/>
      <point x="399" y="618"/>
      <point x="399" y="508" type="curve" smooth="yes"/>
      <point x="399" y="411"/>
      <point x="401" y="251"/>
    </contour>
    <contour>
      <point x="214" y="952" type="curve"/>
      <point x="115" y="1054"/>
      <point x="82" y="1199"/>
      <point x="82" y="1337" type="curve" smooth="yes"/>
      <point x="82" y="1635"/>
      <point x="233" y="1836"/>
      <point x="544" y="1836" type="curve" smooth="yes"/>
      <point x="856" y="1836"/>
      <point x="1003" y="1633"/>
      <point x="1003" y="1337" type="curve" smooth="yes"/>
      <point x="1003" y="1199"/>
      <point x="972" y="1053"/>
      <point x="872" y="952" type="curve"/>
      <point x="1005" y="844"/>
      <point x="1028" y="691"/>
      <point x="1028" y="528" type="curve" smooth="yes"/>
      <point x="1028" y="198"/>
      <point x="906" y="-31"/>
      <point x="544" y="-31" type="curve" smooth="yes"/>
      <point x="184" y="-31"/>
      <point x="60" y="199"/>
      <point x="60" y="528" type="curve" smooth="yes"/>
      <point x="60" y="690"/>
      <point x="80" y="844"/>
    </contour>
    <contour>
      <point x="544" y="1074" type="curve" smooth="yes"/>
      <point x="657" y="1074"/>
      <point x="657" y="1275"/>
      <point x="657" y="1367" type="curve" smooth="yes"/>
      <point x="657" y="1434"/>
      <point x="646" y="1561"/>
      <point x="544" y="1561" type="curve" smooth="yes"/>
      <point x="443" y="1561"/>
      <point x="429" y="1436"/>
      <point x="429" y="1367" type="curve" smooth="yes"/>
      <point x="429" y="1274"/>
      <point x="431" y="1074"/>
    </contour>
  </outline>
</glyph>
<glyph name="B" format="1">
  <advance width="1140"/>
  <unicode hex="0042"/>
  <outline>
    <contour>
      <point x="107" y="0" type="line"/>
      <point x="551" y="0" type="line" smooth="yes"/>
      <point x="905" y="0"/>
      <point x="1078" y="168"/>
      <point x="1078" y="531" type="curve" smooth="yes"/>
      <point x="1078" y="756"/>
      <point x="992" y="928"/>
      <point x="757" y="985" type="curve"/>
      <point x="938" y="1046"/>
      <point x="1030" y="1142"/>
      <point x="1030" y="1335" type="curve" smooth="yes"/>
      <point x="1030" y="1724"/>
      <point x="786" y="1800"/>
      <point x="478" y="1800" type="curve" smooth="yes"/>
      <point x="107" y="1800" type="line"/>
    </contour>
    <contour>
      <point x="471" y="257" type="line"/>
      <point x="471" y="853" type="line"/>
      <point x="507" y="853" type="line" smooth="yes"/>
      <point x="676" y="853"/>
      <point x="725" y="729"/>
      <point x="725" y="556" type="curve" smooth="yes"/>
      <point x="725" y="348"/>
      <point x="697" y="257"/>
      <point x="505" y="257" type="curve" smooth="yes"/>
    </contour>
    <contour>
      <point x="469" y="1092" type="line"/>
      <point x="469" y="1556" type="line"/>
      <point x="478.034574814" y="1556.06692278"/>
      <point x="486.88552465" y="1556.13384555"/>
      <point x="495.536964124" y="1556.13632762" type="curve" smooth="yes"/>
      <point x="616.160488111" y="1556.17093408"/>
      <point x="698.0" y="1543.67852585"/>
      <point x="698" y="1344" type="curve" smooth="yes"/>
      <point x="698" y="1205"/>
      <point x="669" y="1092"/>
      <point x="531" y="1092" type="curve" smooth="yes"/>
    </contour>
  </outline>
</glyph>
<glyph name="D" format="1">
  <advance width="1164"/>
  <unicode hex="0044"/>
  <outline>
    <contour>
      <point x="485" y="255" type="curve"/>
      <point x="485" y="1544" type="line"/>
      <point x="494.644886553" y="1543.93737087"/>
      <point x="503.987747663" y="1543.79629357"/>
      <point x="513.028583329" y="1543.55588725" type="curve" smooth="yes"/>
      <point x="648.34286111" y="1539.95772352"/>
      <point x="716.0" y="1514.10872918"/>
      <point x="716" y="1396" type="curve" smooth="yes"/>
      <point x="716" y="427" type="line" smooth="yes"/>
      <point x="716.0" y="273.827539384"/>
      <point x="675.269275063" y="256.424161893"/>
      <point x="511.140159946" y="255.093977226" type="curve" smooth="yes"/>
      <point x="502.752704998" y="255.026001084"/>
      <point x="494.042995811" y="255.0"/>
    </contour>
    <contour>
      <point x="107" y="0" type="line"/>
      <point x="479" y="0" type="line" smooth="yes"/>
      <point x="997" y="0"/>
      <point x="1080" y="207"/>
      <point x="1080" y="627" type="curve" smooth="yes"/>
      <point x="1080" y="1217" type="line" smooth="yes"/>
      <point x="1080" y="1626"/>
      <point x="965" y="1800"/>
      <point x="483" y="1800" type="curve" smooth="yes"/>
      <point x="107" y="1800" type="line"/>
    </contour>
  </outline>
</glyph>
<glyph name="N" format="1">
  <advance width="1173"/>
  <unicode hex="004E"/>
  <outline>
    <contour>
      <point x="107" y="0" type="line"/>
      <point x="107" y="1801" type="line"/>
      <point x="369" y="1801" type="line"/>
      <point x="764" y="859" type="line"/>
      <point x="764" y="1801" type="line"/>
      <point x="1066" y="1801" type="line"/>
      <point x="1066" y="0" type="line"/>
      <point x="814" y="0" type="line"/>
      <point x="420" y="999" type="line"/>
      <point x="420" y="0" type="line"/>
    </contour>
  </outline>
</glyph>
<glyph name="P" format="1">
  <advance width="1022"/>
  <unicode hex="0050"/>
  <outline>
    <contour>
      <point x="107" y="0" type="line"/>
      <point x="473" y="0" type="line"/>
      <point x="473" y="770" type="line"/>
      <point x="481.030249037" y="770.049877323"/>
      <point x="488.982134032" y="770.164436078"/>
      <point x="496.854569265" y="770.34680934" type="curve" smooth="yes"/>
      <point x="804.654055728" y="777.477308934"/>
      <point x="991.0" y="888.274728581"/>
      <point x="991" y="1290" type="curve" smooth="yes"/>
      <point x="991" y="1608"/>
      <point x="866" y="1800"/>
      <point x="542" y="1800" type="curve" smooth="yes"/>
      <point x="107" y="1800" type="line"/>
    </contour>
    <contour>
      <point x="484.912020461" y="1027.11518596" type="curve" smooth="yes"/>
      <point x="481.353788868" y="1027.03836754"/>
      <point x="477.717025995" y="1027.0"/>
      <point x="474" y="1027" type="curve"/>
      <point x="474" y="1541" type="line"/>
      <point x="476.660834248" y="1541.0"/>
      <point x="479.280506887" y="1540.97530303"/>
      <point x="481.859654642" y="1540.92614269" type="curve" smooth="yes"/>
      <point x="645.030878741" y="1537.81598634"/>
      <point x="646.0" y="1436.79041834"/>
      <point x="646" y="1297" type="curve" smooth="yes"/>
      <point x="646.0" y="1117.84302688"/>
      <point x="650.792203562" y="1030.69636215"/>
    </contour>
  </outline>
</glyph>
<glyph name="S" format="1">
  <advance width="1053"/>
  <unicode hex="0053"/>
  <outline>
    <contour>
      <point x="552" y="-37" type="curve" smooth="yes"/>
      <point x="803" y="-37"/>
      <point x="1015" y="135"/>
      <point x="1015" y="393" type="curve" smooth="yes"/>
      <point x="1015" y="671"/>
      <point x="876" y="840"/>
      <point x="691" y="1005" type="curve"/>
      <point x="658.587035179" y="1034.5189501"/>
      <point x="620.897618017" y="1063.53538094"/>
      <point x="583.700464564" y="1094.6427909" type="curve" smooth="yes"/>
      <point x="492.366296995" y="1171.02415694"/>
      <point x="404.0" y="1260.01208991"/>
      <point x="404" y="1400" type="curve" smooth="yes"/>
      <point x="404" y="1476"/>
      <point x="438" y="1558"/>
      <point x="524" y="1558" type="curve" smooth="yes"/>
      <point x="620" y="1558"/>
      <point x="639" y="1436"/>
      <point x="639" y="1351" type="curve" smooth="yes"/>
      <point x="639" y="1323"/>
      <point x="636" y="1301"/>
      <point x="636" y="1278" type="curve"/>
      <point x="1012" y="1330" type="line"/>
      <point x="1012" y="1359"/>
      <point x="1013" y="1367"/>
      <point x="1013" y="1373" type="curve" smooth="yes"/>
      <point x="1013" y="1628"/>
      <point x="810" y="1837"/>
      <point x="554" y="1837" type="curve" smooth="yes"/>
      <point x="251" y="1837"/>
      <point x="46" y="1658"/>
      <point x="46" y="1363" type="curve" smooth="yes"/>
      <point x="46" y="1104"/>
      <point x="193" y="972"/>
      <point x="335" y="852" type="curve" smooth="yes"/>
      <point x="448" y="756" type="line"/>
      <point x="553" y="664"/>
      <point x="661" y="530"/>
      <point x="661" y="380" type="curve" smooth="yes"/>
      <point x="661" y="304"/>
      <point x="639" y="242"/>
      <point x="553" y="242" type="curve" smooth="yes"/>
      <point x="427" y="242"/>
      <point x="414" y="428"/>
      <point x="414" y="586" type="curve"/>
      <point x="45" y="515" type="line"/>
      <point x="59" y="233"/>
      <point x="207" y="-37"/>
    </contour>
  </outline>
</glyph>
<glyph name="V" format="1">
  <advance width="1044"/>
  <unicode hex="0056"/>
  <outline>
    <contour>
      <point x="343" y="0" type="line"/>
      <point x="12" y="1800" type="line"/>
      <point x="357" y="1800" type="line"/>
      <point x="516" y="709" type="line"/>
      <point x="692" y="1800" type="line"/>
      <point x="1032" y="1800" type="line"/>
      <point x="676" y="0" type="line"/>
    </contour>
  </outline>
</glyph>
<glyph name="asciicircum" format="1">
  <advance width="962"/>
  <unicode hex="005E"/>
  <outline>
    <contour>
      <point x="65" y="907" type="line"/>
      <point x="336" y="1583" type="line"/>
      <point x="613" y="1583" type="line"/>
      <point x="884" y="907" type="line"/>
      <point x="594" y="907" type="line"/>
      <point x="474" y="1325" type="line"/>
      <point x="355" y="907" type="line"/>
    </contour>
  </outline>
</glyph>
<glyph name="e" format="1">
  <advance width="940"/>
  <unicode hex="0065"/>
  <outline>
    <contour>
      <point x="415" y="801" type="line"/>
      <point x="546" y="801" type="line"/>
      <point x="546" y="981" type="line" smooth="yes"/>
      <point x="546" y="1026"/>
      <point x="534" y="1080"/>
      <point x="479" y="1080" type="curve" smooth="yes"/>
      <point x="426" y="1080"/>
      <point x="415" y="1023"/>
      <point x="415" y="981" type="curve" smooth="yes"/>
    </contour>
    <contour>
      <point x="78" y="339" type="curve" smooth="yes"/>
      <point x="78" y="894" type="line" smooth="yes"/>
      <point x="78" y="1161"/>
      <point x="199" y="1335"/>
      <point x="479" y="1335" type="curve" smooth="yes"/>
      <point x="760" y="1335"/>
      <point x="880" y="1162"/>
      <point x="880" y="894" type="curve" smooth="yes"/>
      <point x="880" y="624" type="line"/>
      <point x="415" y="624" type="line"/>
      <point x="415" y="335" type="line" smooth="yes"/>
      <point x="415" y="292"/>
      <point x="420" y="225"/>
      <point x="479" y="225" type="curve" smooth="yes"/>
      <point x="539" y="225"/>
      <point x="549" y="287"/>
      <point x="549" y="343" type="curve" smooth="yes"/>
      <point x="549" y="486" type="line"/>
      <point x="880" y="486" type="line"/>
      <point x="880" y="339" type="line" smooth="yes"/>
      <point x="880" y="115"/>
      <point x="692" y="-29"/>
      <point x="479" y="-29" type="curve" smooth="yes"/>
      <point x="267" y="-29"/>
      <point x="78" y="116"/>
    </contour>
  </outline>
</glyph>
<glyph name="i" format="1">
  <advance width="529"/>
  <unicode hex="0069"/>
  <outline>
    <contour>
      <point x="96" y="1419" type="line"/>
      <point x="96" y="1734" type="line"/>
      <point x="433" y="1734" type="line"/>
      <point x="433" y="1419" type="line"/>
    </contour>
    <contour>
      <point x="96" y="0" type="line"/>
      <point x="96" y="1305" type="line"/>
      <point x="433" y="1305" type="line"/>
      <point x="433" y="0" type="line"/>
    </contour>
  </outline>
</glyph>
<glyph name="j" format="1">
  <advance width="572"/>
  <unicode hex="006A"/>
  <outline>
    <contour>
      <point x="158" y="-311" type="curve" smooth="yes"/>
      <point x="369" y="-311"/>
      <point x="478" y="-179"/>
      <point x="478" y="26" type="curve" smooth="yes"/>
      <point x="478" y="1305" type="line"/>
      <point x="143" y="1305" type="line"/>
      <point x="143" y="55" type="line" smooth="yes"/>
      <point x="143" y="3"/>
      <point x="129" y="-56"/>
      <point x="67" y="-56" type="curve" smooth="yes"/>
      <point x="38" y="-56"/>
      <point x="7" y="-48"/>
      <point x="-21" y="-40" type="curve"/>
      <point x="-21" y="-284" type="line"/>
      <point x="37" y="-299"/>
      <point x="98" y="-311"/>
    </contour>
    <contour>
      <point x="143" y="1419" type="line"/>
      <point x="478" y="1419" type="line"/>
      <point x="478" y="1734" type="line"/>
      <point x="143" y="1734" type="line"/>
    </contour>
  </outline>
</glyph>
<glyph name="m" format="1">
  <advance width="1473"/>
  <unicode hex="006D"/>
  <outline>
    <contour>
      <point x="94" y="0" type="line"/>
      <point x="94" y="1305" type="line"/>
      <point x="431" y="1305" type="line"/>
      <point x="431" y="1212" type="line"/>
      <point x="491" y="1282"/>
      <point x="581" y="1335"/>
      <point x="677" y="1335" type="curve" smooth="yes"/>
      <point x="767" y="1335"/>
      <point x="844" y="1268"/>
      <point x="880" y="1188" type="curve"/>
      <point x="943" y="1273"/>
      <point x="1042" y="1335"/>
      <point x="1152" y="1335" type="curve" smooth="yes"/>
      <point x="1297" y="1335"/>
      <point x="1386" y="1182"/>
      <point x="1386" y="1051" type="curve" smooth="yes"/>
      <point x="1386" y="0" type="line"/>
      <point x="1049" y="0" type="line"/>
      <point x="1049" y="984" type="line" smooth="yes"/>
      <point x="1049" y="1017"/>
      <point x="1049" y="1080"/>
      <point x="1000" y="1080" type="curve" smooth="yes"/>
      <point x="966" y="1080"/>
      <point x="924" y="1027"/>
      <point x="908" y="1006" type="curve"/>
      <point x="908" y="0" type="line"/>
      <point x="571" y="0" type="line"/>
      <point x="571" y="986" type="line" smooth="yes"/>
      <point x="571" y="1018"/>
      <point x="570" y="1080"/>
      <point x="525" y="1080" type="curve" smooth="yes"/>
      <point x="486" y="1080"/>
      <point x="449" y="1030"/>
      <point x="430" y="1005" type="curve"/>
      <point x="430" y="0" type="line"/>
    </contour>
  </outline>
</glyph>
<glyph name="n" format="1">
  <advance width="1005"/>
  <unicode hex="006E"/>
  <outline>
    <contour>
      <point x="94" y="0" type="line"/>
      <point x="94" y="1305" type="line"/>
      <point x="431" y="1305" type="line"/>
      <point x="431" y="1213" type="line"/>
      <point x="493" y="1283"/>
      <point x="587" y="1334"/>
      <point x="687" y="1334" type="curve" smooth="yes"/>
      <point x="832" y="1334"/>
      <point x="918" y="1183"/>
      <point x="918" y="1052" type="curve" smooth="yes"/>
      <point x="918" y="0" type="line"/>
      <point x="581" y="0" type="line"/>
      <point x="581" y="993" type="line" smooth="yes"/>
      <point x="581" y="1021"/>
      <point x="581" y="1080"/>
      <point x="525" y="1080" type="curve" smooth="yes"/>
      <point x="486" y="1080"/>
      <point x="450" y="1034"/>
      <point x="431" y="1012" type="curve"/>
      <point x="431" y="0" type="line"/>
    </contour>
  </outline>
</glyph>
<glyph name="o" format="1">
  <advance width="973"/>
  <unicode hex="006F"/>
  <outline>
    <contour>
      <point x="561" y="335" type="curve" smooth="yes"/>
      <point x="561" y="981" type="line" smooth="yes"/>
      <point x="561" y="1026"/>
      <point x="547" y="1080"/>
      <point x="484" y="1080" type="curve" smooth="yes"/>
      <point x="423" y="1080"/>
      <point x="415" y="1023"/>
      <point x="415" y="981" type="curve" smooth="yes"/>
      <point x="415" y="335" type="line" smooth="yes"/>
      <point x="415" y="291"/>
      <point x="417" y="225"/>
      <point x="484" y="225" type="curve" smooth="yes"/>
      <point x="553" y="225"/>
      <point x="561" y="289"/>
    </contour>
    <contour>
      <point x="78" y="339" type="curve" smooth="yes"/>
      <point x="78" y="894" type="line" smooth="yes"/>
      <point x="78" y="1161"/>
      <point x="196" y="1334"/>
      <point x="484" y="1334" type="curve" smooth="yes"/>
      <point x="772" y="1334"/>
      <point x="895" y="1162"/>
      <point x="895" y="894" type="curve" smooth="yes"/>
      <point x="895" y="339" type="line" smooth="yes"/>
      <point x="895" y="115"/>
      <point x="702" y="-29"/>
      <point x="484" y="-29" type="curve" smooth="yes"/>
      <point x="267" y="-29"/>
      <point x="78" y="116"/>
    </contour>
  </outline>
</glyph>
<glyph name="y" format="1">
  <advance width="872"/>
  <unicode hex="0079"/>
  <outline>
    <contour>
      <point x="87" y="-311" type="line"/>
      <point x="130" y="-311" type="line" smooth="yes"/>
      <point x="344" y="-311"/>
      <point x="526" y="-269"/>
      <point x="576" y="-35" type="curve" smooth="yes"/>
      <point x="861" y="1305" type="line"/>
      <point x="552" y="1305" type="line"/>
      <point x="446" y="577" type="line"/>
      <point x="325" y="1305" type="line"/>
      <point x="18" y="1305" type="line"/>
      <point x="48.0540424585" y="1162.68526953"/>
      <point x="221.87725977" y="573.435930286"/>
      <point x="261.819453106" y="235.521512148" type="curve" smooth="yes"/>
      <point x="267.063679377" y="191.154903281"/>
      <point x="270.0" y="151.120926976"/>
      <point x="270" y="117" type="curve" smooth="yes"/>
      <point x="270" y="-17"/>
      <point x="222" y="-75"/>
      <point x="87" y="-78" type="curve"/>
    </contour>
  </outline>
</glyph>
<glyph name="z" format="1">
  <advance width="813"/>
  <unicode hex="007A"/>
  <outline>
    <contour>
      <point x="57" y="0" type="line"/>
      <point x="57" y="228" type="line"/>
      <point x="416" y="1062" type="line"/>
      <point x="113" y="1062" type="line"/>
      <point x="113" y="1305" type="line"/>
      <point x="764" y="1305" type="line"/>
      <point x="764" y="1082" type="line"/>
      <point x="402" y="244" type="line"/>
      <point x="764" y="244" type="line"/>
      <point x="764" y="0" type="line"/>
    </contour>
  </outline>
</glyph>
<glyph name="braceright" format="1">
  <advance width="762"/>
  <unicode hex="007D"/>
  <outline>
    <contour>
      <point x="70" y="-64" type="line"/>
      <point x="475" y="-64"/>
      <point x="553" y="163"/>
      <point x="553" y="532" type="curve" smooth="yes"/>
      <point x="553" y="655"/>
      <point x="528" y="780"/>
      <point x="682" y="778" type="curve"/>
      <point x="682" y="1065" type="line"/>
      <point x="527" y="1064"/>
      <point x="553" y="1342"/>
      <point x="553" y="1439" type="curve" smooth="yes"/>
      <point x="553" y="1825"/>
      <point x="434" y="1907"/>
      <point x="70" y="1907" type="curve"/>
      <point x="70" y="1685" type="line"/>
      <point x="264" y="1686"/>
      <point x="265" y="1623"/>
      <point x="265" y="1439" type="curve" smooth="yes"/>
      <point x="265" y="1283"/>
      <point x="294" y="1015"/>
      <point x="442" y="922" type="curve"/>
      <point x="291" y="838"/>
      <point x="273" y="675"/>
      <point x="266" y="520" type="curve" smooth="yes"/>
      <point x="258" y="332"/>
      <point x="266" y="157"/>
      <point x="70" y="158" type="curve"/>
    </contour>
  </outline>
</glyph>
<glyph name="cent" format="1">
  <advance width="965"/>
  <unicode hex="00A2"/>
  <outline>
    <contour>
      <point x="447" y="-263" type="line"/>
      <point x="447" y="32" type="line"/>
      <point x="252" y="49"/>
      <point x="87" y="190"/>
      <point x="87" y="399" type="curve" smooth="yes"/>
      <point x="87" y="844" type="line" smooth="yes"/>
      <point x="87" y="1097"/>
      <point x="196" y="1265"/>
      <point x="447" y="1281" type="curve"/>
      <point x="447" y="1568" type="line"/>
      <point x="537" y="1568" type="line"/>
      <point x="537" y="1281" type="line"/>
      <point x="783" y="1262"/>
      <point x="889" y="1096"/>
      <point x="889" y="844" type="curve" smooth="yes"/>
      <point x="889" y="788" type="line"/>
      <point x="557" y="788" type="line"/>
      <point x="558" y="862" type="line" smooth="yes"/>
      <point x="559" y="951"/>
      <point x="551" y="1013"/>
      <point x="488" y="1013" type="curve" smooth="yes"/>
      <point x="435" y="1013"/>
      <point x="424" y="956"/>
      <point x="424" y="914" type="curve" smooth="yes"/>
      <point x="424" y="406" type="line" smooth="yes"/>
      <point x="424" y="362"/>
      <point x="430" y="296"/>
      <point x="488" y="296" type="curve" smooth="yes"/>
      <point x="545" y="296"/>
      <point x="559" y="340"/>
      <point x="559" y="421" type="curve" smooth="yes"/>
      <point x="559" y="434"/>
      <point x="558" y="447"/>
      <point x="557" y="526" type="curve"/>
      <point x="889" y="526" type="line"/>
      <point x="889" y="399" type="line" smooth="yes"/>
      <point x="889" y="192"/>
      <point x="729" y="53"/>
      <point x="537" y="32" type="curve"/>
      <point x="537" y="-263" type="line"/>
    </contour>
  </outline>
</glyph>
<glyph name="section" format="1">
  <advance width="1028"/>
  <unicode hex="00A7"/>
  <outline>
    <contour>
      <point x="508" y="-18" type="curve" smooth="yes"/>
      <point x="733" y="-18"/>
      <point x="910" y="99"/>
      <point x="910" y="339" type="curve" smooth="yes"/>
      <point x="910" y="450"/>
      <point x="842" y="547"/>
      <point x="761" y="617" type="curve"/>
      <point x="863" y="682"/>
      <point x="910" y="787"/>
      <point x="910" y="907" type="curve" smooth="yes"/>
      <point x="910.0" y="1054.11583257"/>
      <point x="813.389428838" y="1166.72788972"/>
      <point x="695.61132216" y="1255.73834424" type="curve" smooth="yes"/>
      <point x="658.076759244" y="1284.10497875"/>
      <point x="618.392367482" y="1310.07457435"/>
      <point x="579" y="1334" type="curve" smooth="yes"/>
      <point x="511" y="1376"/>
      <point x="393" y="1405"/>
      <point x="393" y="1504" type="curve" smooth="yes"/>
      <point x="393" y="1576"/>
      <point x="436" y="1619"/>
      <point x="508" y="1619" type="curve" smooth="yes"/>
      <point x="606" y="1619"/>
      <point x="664" y="1501"/>
      <point x="694" y="1423" type="curve"/>
      <point x="914" y="1496" type="line"/>
      <point x="866" y="1700"/>
      <point x="733" y="1861"/>
      <point x="508" y="1861" type="curve" smooth="yes"/>
      <point x="283" y="1861"/>
      <point x="104" y="1744"/>
      <point x="104" y="1504" type="curve" smooth="yes"/>
      <point x="104" y="1390"/>
      <point x="189" y="1314"/>
      <point x="278" y="1257" type="curve"/>
      <point x="161" y="1196"/>
      <point x="104" y="1081"/>
      <point x="104" y="951" type="curve" smooth="yes"/>
      <point x="104.0" y="818.948762953"/>
      <point x="173.061366088" y="741.720806886"/>
      <point x="260.799353381" y="682.32848671" type="curve" smooth="yes"/>
      <point x="293.322077423" y="660.312936787"/>
      <point x="328.411038712" y="640.748069599"/>
      <point x="363.5" y="621.75" type="curve" smooth="yes"/>
      <point x="493.25" y="551.5"/>
      <point x="623.0" y="489.0"/>
      <point x="623" y="339" type="curve" smooth="yes"/>
      <point x="623" y="267"/>
      <point x="580" y="224"/>
      <point x="508" y="224" type="curve" smooth="yes"/>
      <point x="411" y="224"/>
      <point x="350" y="343"/>
      <point x="322" y="421" type="curve"/>
      <point x="101" y="348" type="line"/>
      <point x="153" y="144"/>
      <point x="280" y="-18"/>
    </contour>
    <contour>
      <point x="541" y="795" type="curve"/>
      <point x="513.0" y="814.5"/>
      <point x="476.0" y="833.0"/>
      <point x="446.0" y="856.875" type="curve" smooth="yes"/>
      <point x="416.0" y="880.75"/>
      <point x="393.0" y="910.0"/>
      <point x="393" y="951" type="curve" smooth="yes"/>
      <point x="393" y="1005"/>
      <point x="429" y="1056"/>
      <point x="474" y="1084" type="curve"/>
      <point x="517" y="1049" type="line"/>
      <point x="565" y="1008"/>
      <point x="623" y="949"/>
      <point x="623" y="907" type="curve" smooth="yes"/>
      <point x="623" y="853"/>
      <point x="584" y="818"/>
    </contour>
  </outline>
</glyph>
<glyph name="ordfeminine" format="1">
  <advance width="906"/>
  <unicode hex="00AA"/>
  <outline>
    <contour>
      <point x="536" y="239" type="curve"/>
      <point x="536" y="403" type="line"/>
      <point x="482" y="372"/>
      <point x="380" y="317"/>
      <point x="380" y="244" type="curve" smooth="yes"/>
      <point x="380" y="206"/>
      <point x="396" y="173"/>
      <point x="438" y="173" type="curve" smooth="yes"/>
      <point x="479" y="173"/>
      <point x="518" y="202"/>
    </contour>
    <contour>
      <point x="554" y="0" type="line"/>
      <point x="554" y="85" type="line"/>
      <point x="512" y="27"/>
      <point x="437" y="-11"/>
      <point x="364" y="-11" type="curve" smooth="yes"/>
      <point x="250" y="-11"/>
      <point x="155" y="85"/>
      <point x="155" y="198" type="curve" smooth="yes"/>
      <point x="155" y="404"/>
      <point x="372" y="463"/>
      <point x="536" y="515" type="curve"/>
      <point x="536" y="601" type="line" smooth="yes"/>
      <point x="536" y="642"/>
      <point x="532" y="726"/>
      <point x="473" y="726" type="curve" smooth="yes"/>
      <point x="401" y="726"/>
      <point x="396" y="625"/>
      <point x="396" y="574" type="curve"/>
      <point x="188" y="574" type="line"/>
      <point x="190" y="749"/>
      <point x="287" y="901"/>
      <point x="477" y="901" type="curve" smooth="yes"/>
      <point x="921" y="901"/>
      <point x="709" y="291"/>
      <point x="778" y="0" type="curve"/>
    </contour>
  </outline>
</glyph>
<glyph name="uni00AD" format="1">
  <advance width="804"/>
  <unicode hex="00AD"/>
  <outline>
    <contour>
      <point x="142" y="433" type="line"/>
      <point x="142" y="688" type="line"/>
      <point x="683" y="688" type="line"/>
      <point x="683" y="433" type="line"/>
    </contour>
  </outline>
</glyph>
<glyph name="uni00B2" format="1">
  <advance width="696"/>
  <unicode hex="00B2"/>
  <outline>
    <contour>
      <point x="70" y="583" type="line"/>
      <point x="617" y="583" type="line"/>
      <point x="617" y="742" type="line"/>
      <point x="307" y="742" type="line"/>
      <point x="347.0" y="794.5"/>
      <point x="424.5" y="881.75"/>
      <point x="492.0" y="975.125" type="curve" smooth="yes"/>
      <point x="559.5" y="1068.5"/>
      <point x="617.0" y="1168.0"/>
      <point x="617" y="1245" type="curve" smooth="yes"/>
      <point x="617" y="1415"/>
      <point x="515" y="1518"/>
      <point x="344" y="1518" type="curve" smooth="yes"/>
      <point x="165" y="1518"/>
      <point x="70" y="1404"/>
      <point x="70" y="1231" type="curve"/>
      <point x="293" y="1231" type="line"/>
      <point x="293" y="1269"/>
      <point x="286" y="1360"/>
      <point x="344" y="1360" type="curve" smooth="yes"/>
      <point x="400" y="1360"/>
      <point x="394" y="1282"/>
      <point x="394" y="1245" type="curve" smooth="yes"/>
      <point x="394.0" y="1193.07140923"/>
      <point x="361.203143625" y="1123.28545537"/>
      <point x="316.303991252" y="1051.63157719" type="curve" smooth="yes"/>
      <point x="229.778988667" y="913.547634231"/>
      <point x="98.3096749783" y="768.52677846"/>
      <point x="70" y="731" type="curve"/>
    </contour>
  </outline>
</glyph>
<glyph name="paragraph" format="1">
  <advance width="1020"/>
  <unicode hex="00B6"/>
  <outline>
    <contour>
      <point x="394" y="0" type="line"/>
      <point x="394" y="887" type="line"/>
      <point x="186" y="892"/>
      <point x="23" y="1015"/>
      <point x="23" y="1233" type="curve" smooth="yes"/>
      <point x="23" y="1494"/>
      <point x="215" y="1583"/>
      <point x="450" y="1583" type="curve" smooth="yes"/>
      <point x="943" y="1583" type="line"/>
      <point x="943" y="0" type="line"/>
      <point x="734" y="0" type="line"/>
      <point x="734" y="887" type="line"/>
      <point x="621" y="887" type="line"/>
      <point x="621" y="0" type="line"/>
    </contour>
  </outline>
</glyph>
<glyph name="Thorn" format="1">
  <advance width="1020"/>
  <unicode hex="00DE"/>
  <outline>
    <contour>
      <point x="97" y="0" type="line"/>
      <point x="475" y="0" type="line"/>
      <point x="475" y="534" type="line"/>
      <point x="481.350642564" y="534.10080385"/>
      <point x="487.650884503" y="534.243472735"/>
      <point x="493.900176788" y="534.429612773" type="curve" smooth="yes"/>
      <point x="797.623780937" y="543.476256867"/>
      <point x="981.0" y="655.205433408"/>
      <point x="981" y="1054" type="curve" smooth="yes"/>
      <point x="981" y="1372"/>
      <point x="856" y="1564"/>
      <point x="532" y="1564" type="curve" smooth="yes"/>
      <point x="480" y="1564" type="line"/>
      <point x="480" y="1800" type="line"/>
      <point x="97" y="1800" type="line"/>
    </contour>
    <contour>
      <point x="487.145882318" y="791.044526803" type="curve" smooth="yes"/>
      <point x="485.124802374" y="791.014835587"/>
      <point x="483.076298892" y="791.0"/>
      <point x="481" y="791" type="curve"/>
      <point x="481" y="1305" type="line"/>
      <point x="484.079900682" y="1305.0"/>
      <point x="487.098605311" y="1304.95920263"/>
      <point x="490.057329769" y="1304.87810385" type="curve" smooth="yes"/>
      <point x="635.039598736" y="1300.9041326"/>
      <point x="636.0" y="1200.16009158"/>
      <point x="636" y="1061" type="curve" smooth="yes"/>
      <point x="636.0" y="880.389702499"/>
      <point x="639.896214227" y="793.28854645"/>
    </contour>
  </outline>
</glyph>
<glyph name="germandbls" format="1">
  <advance width="1193"/>
  <unicode hex="00DF"/>
  <outline>
    <contour>
      <point x="528" y="-35" type="line"/>
      <point x="931" y="-35"/>
      <point x="1122" y="137"/>
      <point x="1122" y="495" type="curve" smooth="yes"/>
      <point x="1122" y="697"/>
      <point x="1018" y="909"/>
      <point x="766" y="977" type="curve"/>
      <point x="956" y="1049"/>
      <point x="1021" y="1194"/>
      <point x="1021" y="1349" type="curve" smooth="yes"/>
      <point x="1021" y="1652"/>
      <point x="869" y="1834"/>
      <point x="560" y="1834" type="curve" smooth="yes"/>
      <point x="240" y="1834"/>
      <point x="99" y="1613"/>
      <point x="99" y="1358" type="curve" smooth="yes"/>
      <point x="99" y="0" type="line"/>
      <point x="465" y="0" type="line"/>
      <point x="465" y="1363" type="line" smooth="yes"/>
      <point x="465" y="1464"/>
      <point x="468" y="1585"/>
      <point x="581" y="1585" type="curve" smooth="yes"/>
      <point x="683" y="1585"/>
      <point x="689" y="1457"/>
      <point x="689" y="1349" type="curve" smooth="yes"/>
      <point x="689.0" y="1235.94308579"/>
      <point x="657.408636058" y="1084.97653485"/>
      <point x="547.061630442" y="1069.32187631" type="curve" smooth="yes"/>
      <point x="541.260996968" y="1068.49895469"/>
      <point x="535.242737174" y="1068.0499419"/>
      <point x="529" y="1068" type="curve"/>
      <point x="529" y="815" type="line"/>
      <point x="538.798908696" y="814.938371643"/>
      <point x="548.29017499" y="814.451361201"/>
      <point x="557.474501087" y="813.552778677" type="curve" smooth="yes"/>
      <point x="697.317775388" y="799.870694534"/>
      <point x="766.0" y="690.769692808"/>
      <point x="766" y="535" type="curve" smooth="yes"/>
      <point x="766" y="317"/>
      <point x="730" y="215"/>
      <point x="528" y="215" type="curve"/>
    </contour>
  </outline>
</glyph>
<glyph name="ae" format="1">
  <advance width="1427"/>
  <unicode hex="00E6"/>
  <outline>
    <contour>
      <point x="894" y="964" type="curve" smooth="yes"/>
      <point x="894" y="804" type="line"/>
      <point x="894" y="804"/>
      <point x="1093" y="843"/>
      <point x="1093" y="968" type="curve" smooth="yes"/>
      <point x="1093" y="1024"/>
      <point x="1060" y="1078"/>
      <point x="978" y="1078" type="curve" smooth="yes"/>
      <point x="925" y="1078"/>
      <point x="894" y="1006"/>
    </contour>
    <contour>
      <point x="581" y="421" type="curve" smooth="yes"/>
      <point x="581" y="439"/>
      <point x="575" y="586"/>
      <point x="575" y="586" type="curve"/>
      <point x="387" y="521"/>
      <point x="366" y="434"/>
      <point x="366" y="354" type="curve" smooth="yes"/>
      <point x="366" y="296"/>
      <point x="394" y="225"/>
      <point x="459" y="225" type="curve" smooth="yes"/>
      <point x="546" y="225"/>
      <point x="581" y="322"/>
    </contour>
    <contour>
      <point x="400" y="869" type="curve"/>
      <point x="73" y="869" type="line"/>
      <point x="73" y="1157"/>
      <point x="224" y="1336"/>
      <point x="486" y="1336" type="curve" smooth="yes"/>
      <point x="495" y="1336"/>
      <point x="505" y="1335"/>
      <point x="514" y="1335" type="curve" smooth="yes"/>
      <point x="587" y="1332"/>
      <point x="671" y="1291"/>
      <point x="718" y="1233" type="curve"/>
      <point x="777" y="1293"/>
      <point x="878" y="1335"/>
      <point x="978" y="1335" type="curve" smooth="yes"/>
      <point x="1207" y="1335"/>
      <point x="1368" y="1149"/>
      <point x="1368" y="998" type="curve" smooth="yes"/>
      <point x="1368" y="719"/>
      <point x="1028" y="678"/>
      <point x="894" y="655" type="curve"/>
      <point x="894" y="346" type="line" smooth="yes"/>
      <point x="894" y="303"/>
      <point x="899" y="236"/>
      <point x="958" y="236" type="curve" smooth="yes"/>
      <point x="1018" y="236"/>
      <point x="1028" y="313"/>
      <point x="1028" y="384" type="curve" smooth="yes"/>
      <point x="1028" y="425"/>
      <point x="1025" y="464"/>
      <point x="1025" y="486" type="curve"/>
      <point x="1359" y="486" type="line"/>
      <point x="1359" y="339" type="line" smooth="yes"/>
      <point x="1359" y="115"/>
      <point x="1201" y="-17"/>
      <point x="988" y="-29" type="curve"/>
      <point x="871" y="-29"/>
      <point x="735" y="41"/>
      <point x="703" y="145" type="curve"/>
      <point x="641" y="33"/>
      <point x="502" y="-29"/>
      <point x="391" y="-29" type="curve" smooth="yes"/>
      <point x="220" y="-29"/>
      <point x="63" y="76"/>
      <point x="63" y="291" type="curve" smooth="yes"/>
      <point x="63" y="612"/>
      <point x="274" y="678"/>
      <point x="556" y="746" type="curve"/>
      <point x="556" y="881" type="line" smooth="yes"/>
      <point x="556" y="958"/>
      <point x="549" y="1070"/>
      <point x="469" y="1070" type="curve" smooth="yes"/>
      <point x="408" y="1070"/>
      <point x="397" y="1009"/>
      <point x="397" y="950" type="curve" smooth="yes"/>
      <point x="397" y="920"/>
      <point x="400" y="891"/>
    </contour>
  </outline>
</glyph>
<glyph name="divide" format="1">
  <advance width="696"/>
  <unicode hex="00F7"/>
  <outline>
    <contour>
      <point x="200" y="236" type="line"/>
      <point x="200" y="523" type="line"/>
      <point x="487" y="523" type="line"/>
      <point x="487" y="236" type="line"/>
    </contour>
    <contour>
      <point x="200" y="890" type="line"/>
      <point x="200" y="1177" type="line"/>
      <point x="487" y="1177" type="line"/>
      <point x="487" y="890" type="line"/>
    </contour>
    <contour>
      <point x="6" y="583" type="line"/>
      <point x="6" y="806" type="line"/>
      <point x="682" y="806" type="line"/>
      <point x="682" y="583" type="line"/>
    </contour>
  </outline>
</glyph>
<glyph name="oslash" format="1">
  <advance width="983"/>
  <unicode hex="00F8"/>
  <outline>
    <contour>
      <point x="566" y="346" type="curve" smooth="yes"/>
      <point x="566" y="964" type="line" smooth="yes"/>
      <point x="566" y="1009"/>
      <point x="552" y="1063"/>
      <point x="489" y="1063" type="curve" smooth="yes"/>
      <point x="428" y="1063"/>
      <point x="420" y="1006"/>
      <point x="420" y="964" type="curve" smooth="yes"/>
      <point x="420" y="346" type="line" smooth="yes"/>
      <point x="420" y="302"/>
      <point x="422" y="236"/>
      <point x="489" y="236" type="curve" smooth="yes"/>
      <point x="558" y="236"/>
      <point x="566" y="300"/>
    </contour>
    <contour>
      <point x="208" y="-233" type="line"/>
      <point x="281" y="21" type="line"/>
      <point x="164" y="81"/>
      <point x="83" y="193"/>
      <point x="83" y="339" type="curve" smooth="yes"/>
      <point x="83" y="894" type="line" smooth="yes"/>
      <point x="83" y="1161"/>
      <point x="201" y="1334"/>
      <point x="489" y="1334" type="curve" smooth="yes"/>
      <point x="550" y="1334"/>
      <point x="605" y="1326"/>
      <point x="652" y="1311" type="curve"/>
      <point x="725" y="1564" type="line"/>
      <point x="802" y="1544" type="line"/>
      <point x="725" y="1278" type="line"/>
      <point x="846" y="1207"/>
      <point x="900" y="1071"/>
      <point x="900" y="894" type="curve" smooth="yes"/>
      <point x="900" y="339" type="line" smooth="yes"/>
      <point x="900" y="115"/>
      <point x="707" y="-28"/>
      <point x="489" y="-28" type="curve" smooth="yes"/>
      <point x="442" y="-28"/>
      <point x="397" y="-21"/>
      <point x="354" y="-8" type="curve"/>
      <point x="284" y="-253" type="line"/>
    </contour>
  </outline>
</glyph>
<glyph name="hungarumlaut" format="1">
  <advance width="984"/>
  <unicode hex="02DD"/>
  <outline>
    <contour>
      <point x="429" y="1405" type="line"/>
      <point x="566" y="1847" type="line"/>
      <point x="851" y="1847" type="line"/>
      <point x="636" y="1405" type="line"/>
    </contour>
    <contour>
      <point x="113" y="1405" type="line"/>
      <point x="250" y="1847" type="line"/>
      <point x="533" y="1847" type="line"/>
      <point x="318" y="1405" type="line"/>
    </contour>
  </outline>
</glyph>
<glyph name="Delta" format="1">
  <advance width="1054"/>
  <unicode hex="0394"/>
  <outline>
    <contour>
      <point x="79" y="0" type="line"/>
      <point x="399" y="1643" type="line"/>
      <point x="657" y="1643" type="line"/>
      <point x="977" y="0" type="line"/>
    </contour>
    <contour>
      <point x="376" y="192" type="line"/>
      <point x="679" y="192" type="line"/>
      <point x="527" y="1259" type="line"/>
    </contour>
  </outline>
</glyph>
<glyph name="quotedblright" format="1">
  <advance width="962"/>
  <unicode hex="201D"/>
  <outline>
    <contour>
      <point x="587" y="1281" type="curve"/>
      <point x="503" y="1450" type="line"/>
      <point x="562" y="1449"/>
      <point x="640" y="1464"/>
      <point x="644" y="1537" type="curve"/>
      <point x="516" y="1537" type="line"/>
      <point x="516" y="1834" type="line"/>
      <point x="813" y="1834" type="line"/>
      <point x="813" y="1636"/>
      <point x="872" y="1280"/>
    </contour>
    <contour>
      <point x="203" y="1281" type="curve"/>
      <point x="119" y="1450" type="line"/>
      <point x="176" y="1449"/>
      <point x="257" y="1464"/>
      <point x="259" y="1537" type="curve"/>
      <point x="131" y="1537" type="line"/>
      <point x="131" y="1834" type="line"/>
      <point x="428" y="1834" type="line"/>
      <point x="428" y="1637"/>
      <point x="487" y="1280"/>
    </contour>
  </outline>
</glyph>
<glyph name="quotedblbase" format="1">
  <advance width="962"/>
  <unicode hex="201E"/>
  <outline>
    <contour>
      <point x="203" y="-256" type="line"/>
      <point x="487" y="-257"/>
      <point x="428" y="100"/>
      <point x="428" y="297" type="curve"/>
      <point x="131" y="297" type="line"/>
      <point x="131" y="0" type="line"/>
      <point x="259" y="0" type="line"/>
      <point x="257" y="-73"/>
      <point x="176" y="-88"/>
      <point x="119" y="-87" type="curve"/>
    </contour>
    <contour>
      <point x="587" y="-256" type="line"/>
      <point x="872" y="-257"/>
      <point x="813" y="99"/>
      <point x="813" y="297" type="curve"/>
      <point x="516" y="297" type="line"/>
      <point x="516" y="0" type="line"/>
      <point x="644" y="0" type="line"/>
      <point x="640" y="-73"/>
      <point x="562" y="-88"/>
      <point x="503" y="-87" type="curve"/>
    </contour>
  </outline>
</glyph>
